#!OML:ASF F:\VICON\USERDATA\INSTALL\rory3\rory3.ASF
:FULLY-SPECIFIED
:DEGREES
1
root 4.15776 18.8243 -0.0342312 6.96291 -52.4033 -0.000673471
lowerback 5.47959 -0.58935 1.26682
upperback 1.77513 -0.714999 1.54601
thorax -1.24156 -0.368464 0.922877
lowerneck -10.3651 -1.65955 -5.61261
upperneck 11.2472 -2.47776 8.21927
head 5.25361 -0.914096 3.30806
rclavicle 5.70512e-014 -7.95139e-015
rhumerus -28.9554 -3.28805 -75.8597
rradius 72.2387
rwrist -62.6234
rhand -37.0918 -14.8814
rfingers 7.12502
rthumb -10.1632 -44.6159
lclavicle 5.70512e-014 -7.95139e-015
lhumerus -22.752 8.52705 79.4288
lradius 12.0746
lwrist -43.603
lhand -32.7224 19.8444
lfingers 7.12502
lthumb -5.94624 49.7409
rfemur -19.6078 19.0436 16.0114
rtibia 26.6652
rfoot -16.2707 -24.5389
rtoes 3.66853
lfemur -7.22521 -4.07537 -17.3854
ltibia 19.1486
lfoot -25.4856 30.5436
ltoes 1.33209
2
root 4.14196 18.8242 -0.0500369 6.9755 -52.5941 0.21469
lowerback 5.47107 -0.652134 1.11088
upperback 1.8721 -0.810237 1.50269
thorax -1.13511 -0.416098 0.970998
lowerneck -10.3555 -1.52747 -5.46084
upperneck 11.4131 -2.29448 7.93541
head 5.28496 -0.835702 3.20849
rclavicle 2.98177e-014 1.03368e-014
rhumerus -29.1456 -2.28734 -76.3062
rradius 74.3275
rwrist -62.3961
rhand -38.4849 -15.7253
rfingers 7.12502
rthumb -11.5069 -45.3895
lclavicle 2.98177e-014 1.03368e-014
lhumerus -22.4073 6.4386 80.1949
lradius 12.4584
lwrist -41.6214
lhand -32.7966 19.847
lfingers 7.12502
lthumb -6.01782 49.7415
rfemur -19.9205 18.9849 15.864
rtibia 26.818
rfoot -16.1582 -24.2886
rtoes 3.29888
lfemur -7.31464 -3.90233 -17.4647
ltibia 18.9995
lfoot -25.4157 30.567
ltoes 0.930812
3
root 4.12443 18.8237 -0.0651201 6.97162 -52.8025 0.325536
lowerback 5.58988 -0.716764 1.03521
upperback 1.96689 -0.901036 1.48633
thorax -1.10222 -0.461999 1.00331
lowerneck -10.3724 -1.38863 -5.47799
upperneck 11.6668 -2.09937 7.79887
head 5.35114 -0.748317 3.18549
rclavicle 7.55382e-015 -3.18055e-015
rhumerus -29.3828 -1.15625 -76.7274
rradius 76.4574
rwrist -62.089
rhand -40.8 -16.95
rfingers 7.12502
rthumb -13.7389 -46.4764
lclavicle 7.55382e-015 -3.18055e-015
lhumerus -22.1604 4.64487 80.9023
lradius 12.8691
lwrist -39.9822
lhand -32.7294 19.8763
lfingers 7.12502
lthumb -5.95292 49.7726
rfemur -20.0903 19.031 15.8186
rtibia 26.9042
rfoot -16.0838 -24.1443
rtoes 3.04591
lfemur -7.33544 -3.80867 -17.4786
ltibia 18.953
lfoot -25.532 30.565
ltoes 1.07095
4
root 4.10394 18.8231 -0.0815154 7.26267 -53.2713 0.238563
lowerback 5.58476 -0.675657 0.969553
upperback 1.99671 -0.85083 1.51198
thorax -1.0679 -0.437398 1.06292
lowerneck -10.2528 -1.24103 -5.43374
upperneck 11.9148 -1.90897 7.66915
head 5.39245 -0.663617 3.15409
rclavicle 3.04141e-014 6.36111e-015
rhumerus -29.6223 -0.318229 -77.1407
rradius 78.4628
rwrist -61.5118
rhand -42.7353 -18.4726
rfingers 7.12502
rthumb -15.6035 -47.8633
lclavicle 3.04141e-014 6.36111e-015
lhumerus -22.0274 2.70544 81.6617
lradius 13.3895
lwrist -38.2395
lhand -32.4667 19.5277
lfingers 7.12502
lthumb -5.69938 49.431
rfemur -20.4676 19.1879 15.8374
rtibia 26.9887
rfoot -15.9325 -23.8871
rtoes 3.00407
lfemur -7.45431 -3.62428 -17.3849
ltibia 18.9126
lfoot -25.9128 30.6636
ltoes 1.58522
5
root 4.07708 18.8206 -0.108665 8.06641 -54.4666 0.00494195
lowerback 5.17863 -0.431035 0.555889
upperback 1.95918 -0.551042 1.62406
thorax -0.87867 -0.288847 1.38719
lowerneck -10.2675 -1.025 -5.298
upperneck 12.3199 -1.62125 7.38693
head 5.49746 -0.534448 3.06823
rclavicle 6.95746e-014 -8.74653e-015
rhumerus -29.7081 0.660338 -77.5154
rradius 80.3196
rwrist -60.963
rhand -43.6811 -20.3135
rfingers 7.12502
rthumb -16.5142 -49.6307
lclavicle 6.95746e-014 -8.74653e-015
lhumerus -21.7925 1.19028 82.298
lradius 13.813
lwrist -36.6887
lhand -32.2267 19.1514
lfingers 7.12502
lthumb -5.46757 49.0609
rfemur -21.4221 19.6148 15.7424
rtibia 27.022
rfoot -15.4752 -23.3012
rtoes 2.66796
lfemur -7.90661 -3.06322 -17.2623
ltibia 18.9378
lfoot -26.615 31.0005
ltoes 2.15157
6
root 4.06051 18.8198 -0.135387 8.27339 -54.8923 -0.134073
lowerback 5.42531 -0.459152 0.39351
upperback 2.02973 -0.595237 1.68148
thorax -0.940439 -0.312451 1.54222
lowerneck -10.2231 -0.828551 -5.13618
upperneck 12.6728 -1.35541 7.05695
head 5.57874 -0.420159 2.96067
rclavicle -2.83268e-014 -1.23246e-014
rhumerus -29.8785 1.7497 -77.9029
rradius 82.2457
rwrist -60.7897
rhand -44.6399 -21.9414
rfingers 7.12502
rthumb -17.4372 -51.1793
lclavicle -2.83268e-014 -1.23246e-014
lhumerus -21.6084 -0.0773254 82.7942
lradius 14.3023
lwrist -35.2798
lhand -32.0542 18.9507
lfingers 7.12502
lthumb -5.30103 48.8644
rfemur -21.615 19.6381 15.8828
rtibia 27.0274
rfoot -15.181 -22.9849
rtoes 2.32765
lfemur -7.96046 -2.84059 -17.1316
ltibia 19.0042
lfoot -26.727 31.18
ltoes 2.22545
